<?xml version="1.0" encoding="utf-8"?>
<!-- Svg Vector Icons : http://www.onlinewebfonts.com/icon -->
<!DOCTYPE svg PUBLIC "-//W3C//DTD SVG 1.1//EN" "http://www.w3.org/Graphics/SVG/1.1/DTD/svg11.dtd">
<svg version="1.1" xmlns="http://www.w3.org/2000/svg" xmlns:xlink="http://www.w3.org/1999/xlink" x="0px" y="0px" viewBox="0 0 1000 1000" enable-background="new 0 0 1000 1000" xml:space="preserve">
<metadata> Svg Vector Icons : http://www.onlinewebfonts.com/icon </metadata>
<g><g transform="translate(0.000000,511.000000) scale(0.100000,-0.100000)"><path d="M3122.3,3381.3c-28.7-3.8-74.6-34.4-105.3-65.1l-55.5-57.4V2158.2V1055.7l63.2-55.5c86.1-76.6,189.5-76.6,275.6,0l63.2,55.5l5.7,958.9l5.8,958.9h3060.6H9498V1136.1V-701.4H7314.1h-2184l-65.1-65.1c-90-90-90-181.8,0-271.8l65.1-65.1H7450h2319.8l65.1,65.1l65.1,65.1v2097.8c0,2275.8,3.8,2176.3-101.4,2235.6c-34.4,19.1-698.6,24.9-3334.3,26.8C4653.5,3388.9,3149.1,3385.1,3122.3,3381.3z"/><path d="M4280.3,2535.3c-61.2-36.4-103.3-122.5-103.3-206.7c0-74.6-91.9-151.2-199.1-166.5c-210.5-32.5-273.7-258.4-107.2-371.3c57.4-40.2,82.3-44,172.3-34.5c57.4,7.7,149.3,34.5,204.8,61.3c105.3,49.8,266.1,212.5,285.2,285.2c9.6,38.3,24.9,44,172.3,53.6c97.6,5.8,178,21.1,206.7,38.3c101.5,67,111,235.4,19.1,321.6c-45.9,44-63.2,45.9-319.6,51.7C4370.3,2571.6,4333.9,2569.7,4280.3,2535.3z"/><path d="M6177.1,2544.8c-369.4-70.8-721.6-296.7-918.8-591.4c-88-132.1-90-204.8-1.9-292.9c47.9-47.9,80.4-65.1,130.2-65.1c86.1,1.9,132.1,30.6,220.1,143.6c223.9,283.3,480.4,411.5,828.8,411.5c541.7,0,970.4-402,1008.7-947.5c40.2-580-432.6-1081.4-1018.3-1081.4c-170.4,0-315.8,38.3-490,126.3c-107.2,53.6-151.2,65.1-201,57.4c-139.7-26.8-208.6-212.5-122.5-323.5c53.6-67,281.4-178,467-224c189.5-47.9,499.6-51.7,679.5-7.6c176.1,42.1,449.8,178,585.7,292.9c225.9,185.7,411.5,491.9,476.6,780.9c38.3,170.3,38.3,451.7,1.9,627.8c-36.4,168.4-153.1,415.4-269.9,566.6c-178,231.6-495.8,438.3-773.3,505.3C6600.1,2565.9,6336,2575.5,6177.1,2544.8z"/><path d="M7955.3,2535.3c-68.9-42.1-111-143.6-91.9-220.1c5.8-26.8,38.3-70.8,68.9-97.6c49.8-42.1,74.6-47.9,206.7-47.9h149.3l57.4-103.4c61.3-107.2,160.8-201,266.1-250.7l63.2-30.6v-647V489.2l-61.3-24.9c-90-36.4-233.5-176.1-273.7-266.1l-34.5-76.6h-145.5c-181.8,0-256.5-38.3-290.9-149.3c-26.8-90,0-158.9,84.2-222c47.9-36.4,80.4-40.2,296.7-40.2c134,0,266.1,5.7,294.8,15.3c67,17.2,111,86.1,132.1,199.1c21.1,109.1,78.5,174.2,168.5,189.5c109.1,17.2,170.3,45.9,202.9,95.7c24.9,38.3,28.7,162.7,28.7,936v893.9l-53.6,53.6c-34.4,32.5-84.2,57.4-137.8,67c-145.5,24.9-191.4,74.6-218.2,241.2c-7.6,38.3-34.4,90-61.2,114.8c-45.9,44-63.2,45.9-319.7,51.7C8043.3,2571.6,8008.9,2569.7,7955.3,2535.3z"/><path d="M4490.8,1325.6c-206.7-26.8-246.9-57.4-849.8-658.4c-530.2-528.3-570.4-564.6-633.6-564.6c-99.5,0-352.2-68.9-490-134c-135.9-63.2-268-149.3-373.2-245l-70.8-65.1l-53.6,38.3C1793.9-144.4,1313.5-8.5,683.8,71.9c-264.1,34.5-436.4,38.3-490,11.5C98.1,31.7,100,60.4,100-1535.9v-1485.3l65.1-65.1c57.4-57.4,76.6-65.1,170.3-65.1c243.1,0,652.7,118.7,1025.9,298.6l218.2,103.4l1313-204.8C4087-3141.8,4232.4-3161,4513.8-3166.7c461.3-9.6,867.1,63.2,1104.4,193.3c262.2,145.5,1713.1,1060.4,1770.5,1115.9c86.1,86.1,86.1,178-3.8,268l-65.1,65.1h-668c-509.1,0-790.5-9.6-1196.3-40.2c-505.3-40.2-534-40.2-629.7-9.6c-357.9,118.7-534,503.4-382.8,842.2c21.1,49.8,195.2,304.3,384.7,566.6c189.5,262.2,363.7,516.8,388.5,568.5c65.1,139.7,61.3,396.2-7.6,543.6C5082.3,1214.6,4799,1363.9,4490.8,1325.6z M4760.7,866.2c82.3-72.7,120.6-181.8,91.9-271.8c-9.6-32.5-176.1-275.6-367.5-539.8c-193.3-262.2-371.3-518.7-394.3-566.6c-103.4-201-134-509.2-76.6-735c91.9-348.4,379-635.5,727.3-727.3c149.3-38.3,277.5-36.4,857.5,9.6c264.2,23,581.9,36.4,702.5,34.4l220.1-5.7L6001-2261.4c-287.1-178-558.9-344.5-604.8-369.4c-153.1-80.4-444.1-124.4-817.3-124.4c-333-1.9-342.6,0-1544.6,189.5c-666.1,105.3-1215.4,197.1-1221.2,202.9c-11.5,11.5,116.8,547.4,271.8,1135c45.9,179.9,107.2,363.7,134,411.5c160.8,279.5,570.4,516.8,891.9,516.8c49.8,0,114.8,11.5,143.6,26.8S3551,3,3851.6,303.5c300.5,302.4,572.3,566.6,602.9,585.7c34.4,23,91.9,36.4,147.4,36.4C4676.5,925.6,4705.2,914.1,4760.7,866.2z M980.5-387.5c283.3-51.7,470.9-99.5,637.4-160.8l107.2-40.2l-9.6-90c-36.4-308.2-139.7-855.6-229.7-1209.7c-149.3-585.7-109.1-516.8-348.3-622.1c-233.5-103.3-520.6-201-589.5-201H502v1198.2v1196.3l111-11.5C672.3-335.8,838.8-362.6,980.5-387.5z"/></g></g>
</svg>